<?xml version="1.0" encoding="UTF-8"?>
<svg id="Camada_2" data-name="Camada 2" xmlns="http://www.w3.org/2000/svg" viewBox="0 0 1110.28 189.63">
  <g id="Camada_1-2" data-name="Camada 1">
    <path d="M0,189.44V.1h111.41c33.65,0,50.19,25.38,50.19,53.61,0,25.09-13.12,50.76-43.91,52.47-2.85,0-5.7.28-8.55.28l47.62,82.98h-28.23l-47.05-82.98H25.09v82.98H0ZM25.09,83.36h86.32c17.39,0,24.81-13.12,24.81-29.37s-7.7-30.22-24.81-30.22H25.09v59.6Z"/>
    <path d="M207.22.11h25.09v189.34h-25.09V.11Z"/>
    <path d="M385.4,189.46h-107.71V.12h100.58c32.79,0,57.32,22.01,57.32,50.24,0,17.11-12.26,33.59-27.09,42.72,17.39,7.13,27.09,27.66,27.09,43.63,0,28.8-17.11,52.75-50.19,52.75ZM302.78,83.39h75.48c17.39,0,32.22-15.63,32.22-31.88s-15.4-27.71-32.22-27.71h-75.48v59.6ZM302.78,166.37h82.61c17.39,0,25.09-12.83,25.09-29.37s-7.98-30.51-25.09-30.51h-82.61v59.88Z"/>
    <path d="M480.96.13h136.43v23.67h-111.33v59.6h91.45v23.1h-91.45v59.88h111.33v23.1h-136.43V.13Z"/>
    <path d="M663,.15h25.09v189.34h-25.09V.15Z"/>
    <path d="M733.7,189.43V.09h111.41c33.65,0,50.19,25.38,50.19,53.61,0,25.09-13.12,50.76-43.91,52.47-2.85,0-5.7.28-8.55.28l47.62,82.98h-28.23l-47.05-82.98h-56.38v82.98h-25.09ZM758.79,83.35h86.32c17.39,0,24.81-13.12,24.81-29.37s-7.7-30.22-24.81-30.22h-86.32v59.6Z"/>
    <path d="M917.8,189.63L1000.2,0h26.8l83.27,189.63h-27.09l-21.96-50.47h-95.24l-21.39,50.47h-26.8ZM974.26,116.06h79.27l-40.78-91.82-38.5,91.82Z"/>
  </g>
</svg>